<svg width="18" height="18" viewBox="0 0 18 18" fill="none" xmlns="http://www.w3.org/2000/svg">
<path d="M14.0258 12.8475L17.595 16.4158L16.4158 17.595L12.8475 14.0258C11.5198 15.0901 9.86834 15.669 8.16667 15.6666C4.02667 15.6666 0.666668 12.3066 0.666668 8.16663C0.666668 4.02663 4.02667 0.666626 8.16667 0.666626C12.3067 0.666626 15.6667 4.02663 15.6667 8.16663C15.6691 9.86829 15.0902 11.5197 14.0258 12.8475ZM12.3542 12.2291C13.4118 11.1415 14.0024 9.68365 14 8.16663C14 4.94329 11.3892 2.33329 8.16667 2.33329C4.94333 2.33329 2.33333 4.94329 2.33333 8.16663C2.33333 11.3891 4.94333 14 8.16667 14C9.68369 14.0023 11.1416 13.4117 12.2292 12.3541L12.3542 12.2291Z" fill="black"/>
</svg>
